<svg width="24" height="24" viewBox="0 0 24 24" fill="none" xmlns="http://www.w3.org/2000/svg">
<path d="M11.1529 21H7.2946C5.53545 21 4.10938 19.5739 4.10938 17.8148V14.7391" stroke="white" stroke-width="1.5"/>
<path d="M11.1529 21H7.2946C5.53545 21 4.10938 19.5739 4.10938 17.8148V14.7391" stroke="white" stroke-width="1.5"/>
<path d="M11.1529 3H7.2946C5.53545 3 4.10938 4.42607 4.10938 6.18522V9.26087" stroke="white" stroke-width="1.5"/>
<path d="M11.1529 3H7.2946C5.53545 3 4.10938 4.42607 4.10938 6.18522V9.26087" stroke="white" stroke-width="1.5"/>
<path d="M13.5034 21H17.3617C19.1208 21 20.5469 19.5739 20.5469 17.8148V14.7391" stroke="white" stroke-width="1.5"/>
<path d="M13.5034 21H17.3617C19.1208 21 20.5469 19.5739 20.5469 17.8148V14.7391" stroke="white" stroke-width="1.5"/>
<path d="M13.5034 3H17.3617C19.1208 3 20.5469 4.42607 20.5469 6.18522V9.26087" stroke="white" stroke-width="1.5"/>
<path d="M13.5034 3H17.3617C19.1208 3 20.5469 4.42607 20.5469 6.18522V9.26087" stroke="white" stroke-width="1.5"/>
<line x1="1.65625" y1="12.2477" x2="23.0001" y2="12.2477" stroke="white" stroke-width="1.06719"/>
</svg>
