<svg width="14" height="14" viewBox="0 0 14 14" fill="none" xmlns="http://www.w3.org/2000/svg">
<g clip-path="url(#clip0_0_37)">
<path d="M7.28788 0.43922C5.02874 1.87395 8.20534 4.9485 9.60382 7.3221C11.0024 9.69562 8.73308 12.387 7.6593 13.4711C9.24379 13.2485 10.6911 12.4431 11.7239 11.2096C12.7568 9.97598 13.3025 8.40099 13.2564 6.78629C13.2104 5.17155 12.576 3.63071 11.4746 2.45928C10.3732 1.28775 8.88241 0.567874 7.28817 0.4375L7.28788 0.43922Z" fill="white"/>
<path d="M3.67646 12.7526C5.20289 11.652 7.07423 9.79695 5.9397 7.87845C4.53912 5.5091 4.12163 1.87514 6.82945 0.43634L6.82931 0.436483C5.51228 0.529703 4.25444 1.02595 3.22382 1.85936C2.19306 2.69277 1.43842 3.82353 1.06026 5.10099C0.682216 6.37845 1.02683 8.2972 1.43559 9.56522C1.84433 10.833 2.62605 11.9449 3.67646 12.7526Z" fill="white"/>
</g>
<defs>
<clipPath id="clip0_0_37">
<rect width="14" height="14" fill="white"/>
</clipPath>
</defs>
</svg>
