<svg width="24" height="24" viewBox="0 0 24 24" fill="none" xmlns="http://www.w3.org/2000/svg">
<path d="M13.5202 7.65146H13.5706C14.2094 7.65146 14.702 7.85993 15.0988 8.28602L15.0989 8.28615C15.2841 8.48464 15.6107 8.84061 15.6485 9.3809C15.6856 9.91314 15.4441 10.692 14.3249 11.734L14.3248 11.7342C13.7476 12.2728 13.174 12.8971 13.0046 13.7589C12.8339 14.6267 13.0816 15.6823 14.0151 17.068L14.0152 17.068C14.9399 18.4395 15.1216 19.9228 14.5766 20.8559C14.2289 21.4453 13.5879 21.8 12.672 21.8456L12.6391 21.8473H12.6164C12.0987 21.8473 11.5506 21.4831 11.0033 20.8208C10.4629 20.1668 9.95876 19.2641 9.52485 18.2843C8.65463 16.3193 8.09277 14.1047 8.07152 13.0768L13.5202 7.65146ZM13.5202 7.65146C12.6863 7.66605 11.8112 8.03574 11.4122 8.20441C10.2289 8.70555 9.38644 9.34269 8.84414 10.1358C8.30279 10.9275 8.04754 11.8935 8.07152 13.0767L13.5202 7.65146ZM6.60687 13.1034L6.60687 13.1035C6.63012 14.1995 7.20126 16.7026 8.20893 18.9293C8.71378 20.0449 9.33467 21.106 10.0631 21.8914C10.7623 22.6452 11.5801 23.1651 12.5043 23.2045L12.5061 23.2073H12.6177C12.6251 23.2073 12.6568 23.2068 12.6849 23.2062L12.689 23.2061C12.7073 23.2058 12.7359 23.2052 12.7539 23.2042L12.7539 23.2042C14.1409 23.1355 15.2578 22.5436 15.864 21.5076C16.7005 20.079 16.4381 18.0985 15.2581 16.3491C14.4859 15.2023 14.3466 14.4777 14.4547 13.9687C14.5643 13.4523 14.9362 13.0973 15.3648 12.6982L15.3649 12.6981C16.3312 11.7972 16.9139 10.872 17.0653 9.96177C17.2185 9.04104 16.9249 8.16837 16.2082 7.39793C15.5249 6.66132 14.632 6.29136 13.572 6.29136C12.3935 6.29136 11.2721 6.76726 10.807 6.96464L10.8029 6.96639C9.37795 7.56984 8.3099 8.37429 7.60689 9.40098C6.90301 10.4289 6.57672 11.6627 6.60687 13.1034Z" fill="white" stroke="white" stroke-width="0.417284"/>
<mask id="path-2-inside-1_0_145" fill="white">
<path d="M5.24257 9.33646C4.47572 9.33646 3.85168 8.71243 3.85168 7.94558C3.85168 7.17872 4.47572 6.55469 5.24257 6.55469C6.00943 6.55469 6.63346 7.17872 6.63346 7.94558C6.63346 8.71243 6.01034 9.33646 5.24257 9.33646ZM5.24257 7.48205C4.98659 7.48205 4.77889 7.69255 4.77889 7.94574C4.77889 8.20078 4.98659 8.40942 5.24257 8.40942C5.49762 8.40942 5.70626 8.20078 5.70626 7.94574C5.70626 7.69162 5.49855 7.48205 5.24257 7.48205Z"/>
</mask>
<path d="M5.24257 9.33646C4.47572 9.33646 3.85168 8.71243 3.85168 7.94558C3.85168 7.17872 4.47572 6.55469 5.24257 6.55469C6.00943 6.55469 6.63346 7.17872 6.63346 7.94558C6.63346 8.71243 6.01034 9.33646 5.24257 9.33646ZM5.24257 7.48205C4.98659 7.48205 4.77889 7.69255 4.77889 7.94574C4.77889 8.20078 4.98659 8.40942 5.24257 8.40942C5.49762 8.40942 5.70626 8.20078 5.70626 7.94574C5.70626 7.69162 5.49855 7.48205 5.24257 7.48205Z" fill="white"/>
<path d="M5.24257 8.29325C5.05187 8.29325 4.8949 8.13628 4.8949 7.94558H2.80847C2.80847 9.28858 3.89957 10.3797 5.24257 10.3797V8.29325ZM4.8949 7.94558C4.8949 7.75487 5.05187 7.5979 5.24257 7.5979V5.51148C3.89957 5.51148 2.80847 6.60257 2.80847 7.94558H4.8949ZM5.24257 7.5979C5.43328 7.5979 5.59025 7.75487 5.59025 7.94558H7.67667C7.67667 6.60257 6.58558 5.51148 5.24257 5.51148V7.5979ZM5.59025 7.94558C5.59025 8.13673 5.43375 8.29325 5.24257 8.29325V10.3797C6.58694 10.3797 7.67667 9.28814 7.67667 7.94558H5.59025ZM5.24257 6.43884C4.40636 6.43884 3.73568 7.12049 3.73568 7.94574H5.8221C5.8221 8.26461 5.56682 8.52526 5.24257 8.52526V6.43884ZM3.73568 7.94574C3.73568 8.77557 4.40908 9.45263 5.24257 9.45263V7.36621C5.5641 7.36621 5.8221 7.626 5.8221 7.94574H3.73568ZM5.24257 9.45263C6.07377 9.45263 6.74947 8.77693 6.74947 7.94574H4.66304C4.66304 7.62463 4.92147 7.36621 5.24257 7.36621V9.45263ZM6.74947 7.94574C6.74947 7.1182 6.07743 6.43884 5.24257 6.43884V8.52526C4.91968 8.52526 4.66304 8.26504 4.66304 7.94574H6.74947Z" fill="white" mask="url(#path-2-inside-1_0_145)"/>
<mask id="path-4-inside-2_0_145" fill="white">
<path d="M6.9208 6.57084C6.15394 6.57084 5.52991 5.94681 5.52991 5.17995C5.52991 4.41309 6.15394 3.78906 6.9208 3.78906C7.68765 3.78906 8.31168 4.41309 8.31168 5.17995C8.31168 5.94681 7.68765 6.57084 6.9208 6.57084ZM6.9208 4.71643C6.66482 4.71643 6.45711 4.92692 6.45711 5.18011C6.45711 5.43516 6.66482 5.64379 6.9208 5.64379C7.17677 5.64379 7.38448 5.43516 7.38448 5.18011C7.38448 4.92599 7.17677 4.71643 6.9208 4.71643Z"/>
</mask>
<path d="M6.9208 6.57084C6.15394 6.57084 5.52991 5.94681 5.52991 5.17995C5.52991 4.41309 6.15394 3.78906 6.9208 3.78906C7.68765 3.78906 8.31168 4.41309 8.31168 5.17995C8.31168 5.94681 7.68765 6.57084 6.9208 6.57084ZM6.9208 4.71643C6.66482 4.71643 6.45711 4.92692 6.45711 5.18011C6.45711 5.43516 6.66482 5.64379 6.9208 5.64379C7.17677 5.64379 7.38448 5.43516 7.38448 5.18011C7.38448 4.92599 7.17677 4.71643 6.9208 4.71643Z" fill="white"/>
<path d="M6.9208 5.52763C6.73009 5.52763 6.57312 5.37066 6.57312 5.17995H4.4867C4.4867 6.52296 5.57779 7.61405 6.9208 7.61405V5.52763ZM6.57312 5.17995C6.57312 4.98924 6.73009 4.83227 6.9208 4.83227V2.74585C5.57779 2.74585 4.4867 3.83694 4.4867 5.17995H6.57312ZM6.9208 4.83227C7.1115 4.83227 7.26847 4.98924 7.26847 5.17995H9.35489C9.35489 3.83694 8.2638 2.74585 6.9208 2.74585V4.83227ZM7.26847 5.17995C7.26847 5.37066 7.1115 5.52763 6.9208 5.52763V7.61405C8.2638 7.61405 9.35489 6.52296 9.35489 5.17995H7.26847ZM6.9208 3.67322C6.08459 3.67322 5.4139 4.35486 5.4139 5.18011H7.50032C7.50032 5.49898 7.24505 5.75964 6.9208 5.75964V3.67322ZM5.4139 5.18011C5.4139 6.00995 6.08731 6.687 6.9208 6.687V4.60058C7.24233 4.60058 7.50032 4.86037 7.50032 5.18011H5.4139ZM6.9208 6.687C7.75428 6.687 8.42769 6.00995 8.42769 5.18011H6.34127C6.34127 4.86037 6.59926 4.60058 6.9208 4.60058V6.687ZM8.42769 5.18011C8.42769 4.35257 7.75565 3.67322 6.9208 3.67322V5.75964C6.5979 5.75964 6.34127 5.49941 6.34127 5.18011H8.42769Z" fill="white" mask="url(#path-4-inside-2_0_145)"/>
<mask id="path-6-inside-3_0_145" fill="white">
<path d="M9.59169 4.71146C8.82484 4.71146 8.20081 4.08743 8.20081 3.32058C8.20081 2.55372 8.82484 1.92969 9.59169 1.92969C10.3586 1.92969 10.9826 2.55372 10.9826 3.32058C10.9826 4.08743 10.3586 4.71146 9.59169 4.71146ZM9.59169 2.85689C9.33664 2.85689 9.12801 3.06739 9.12801 3.32058C9.12801 3.57562 9.33664 3.78426 9.59169 3.78426C9.84767 3.78426 10.0554 3.57562 10.0554 3.32058C10.0554 3.06646 9.84767 2.85689 9.59169 2.85689Z"/>
</mask>
<path d="M9.59169 4.71146C8.82484 4.71146 8.20081 4.08743 8.20081 3.32058C8.20081 2.55372 8.82484 1.92969 9.59169 1.92969C10.3586 1.92969 10.9826 2.55372 10.9826 3.32058C10.9826 4.08743 10.3586 4.71146 9.59169 4.71146ZM9.59169 2.85689C9.33664 2.85689 9.12801 3.06739 9.12801 3.32058C9.12801 3.57562 9.33664 3.78426 9.59169 3.78426C9.84767 3.78426 10.0554 3.57562 10.0554 3.32058C10.0554 3.06646 9.84767 2.85689 9.59169 2.85689Z" fill="white"/>
<path d="M9.59169 3.66825C9.40099 3.66825 9.24402 3.51128 9.24402 3.32058H7.15759C7.15759 4.66358 8.24869 5.75467 9.59169 5.75467V3.66825ZM9.24402 3.32058C9.24402 3.12987 9.40099 2.9729 9.59169 2.9729V0.886477C8.24869 0.886477 7.15759 1.97757 7.15759 3.32058H9.24402ZM9.59169 2.9729C9.7824 2.9729 9.93937 3.12987 9.93937 3.32058H12.0258C12.0258 1.97757 10.9347 0.886477 9.59169 0.886477V2.9729ZM9.93937 3.32058C9.93937 3.51128 9.7824 3.66825 9.59169 3.66825V5.75467C10.9347 5.75467 12.0258 4.66358 12.0258 3.32058H9.93937ZM9.59169 1.81368C8.75777 1.81368 8.0848 2.49397 8.0848 3.32058H10.1712C10.1712 3.64081 9.91552 3.9001 9.59169 3.9001V1.81368ZM8.0848 3.32058C8.0848 4.15177 8.7605 4.82747 9.59169 4.82747V2.74105C9.91279 2.74105 10.1712 2.99948 10.1712 3.32058H8.0848ZM9.59169 4.82747C10.4252 4.82747 11.0986 4.15041 11.0986 3.32058H9.01217C9.01217 3.00084 9.27016 2.74105 9.59169 2.74105V4.82747ZM11.0986 3.32058C11.0986 2.49304 10.4265 1.81368 9.59169 1.81368V3.9001C9.2688 3.9001 9.01217 3.63988 9.01217 3.32058H11.0986Z" fill="white" mask="url(#path-6-inside-3_0_145)"/>
<mask id="path-8-inside-4_0_145" fill="white">
<path d="M12.7636 3.78178C11.9977 3.78178 11.3727 3.15774 11.3727 2.39089C11.3727 1.62403 11.9977 1 12.7636 1C13.5305 1 14.1545 1.62403 14.1545 2.39089C14.1545 3.15774 13.5305 3.78178 12.7636 3.78178ZM12.7636 1.92736C12.5086 1.92736 12.2999 2.13786 12.2999 2.39105C12.2999 2.6461 12.5086 2.85473 12.7636 2.85473C13.0196 2.85473 13.2273 2.6461 13.2273 2.39105C13.2273 2.13693 13.0196 1.92736 12.7636 1.92736Z"/>
</mask>
<path d="M12.7636 3.78178C11.9977 3.78178 11.3727 3.15774 11.3727 2.39089C11.3727 1.62403 11.9977 1 12.7636 1C13.5305 1 14.1545 1.62403 14.1545 2.39089C14.1545 3.15774 13.5305 3.78178 12.7636 3.78178ZM12.7636 1.92736C12.5086 1.92736 12.2999 2.13786 12.2999 2.39105C12.2999 2.6461 12.5086 2.85473 12.7636 2.85473C13.0196 2.85473 13.2273 2.6461 13.2273 2.39105C13.2273 2.13693 13.0196 1.92736 12.7636 1.92736Z" fill="white"/>
<path d="M12.7636 2.73857C12.5734 2.73857 12.416 2.58113 12.416 2.39089H10.3295C10.3295 3.73436 11.422 4.82499 12.7636 4.82499V2.73857ZM12.416 2.39089C12.416 2.20065 12.5734 2.04321 12.7636 2.04321V-0.0432107C11.422 -0.0432107 10.3295 1.04742 10.3295 2.39089H12.416ZM12.7636 2.04321C12.9543 2.04321 13.1113 2.20018 13.1113 2.39089H15.1977C15.1977 1.04788 14.1066 -0.0432107 12.7636 -0.0432107V2.04321ZM13.1113 2.39089C13.1113 2.5816 12.9543 2.73857 12.7636 2.73857V4.82499C14.1066 4.82499 15.1977 3.73389 15.1977 2.39089H13.1113ZM12.7636 0.884154C11.9297 0.884154 11.2567 1.56444 11.2567 2.39105H13.3432C13.3432 2.71129 13.0875 2.97058 12.7636 2.97058V0.884154ZM11.2567 2.39105C11.2567 3.22225 11.9324 3.89794 12.7636 3.89794V1.81152C13.0847 1.81152 13.3432 2.06995 13.3432 2.39105H11.2567ZM12.7636 3.89794C13.5971 3.89794 14.2705 3.22088 14.2705 2.39105H12.1841C12.1841 2.07131 12.4421 1.81152 12.7636 1.81152V3.89794ZM14.2705 2.39105C14.2705 1.56351 13.5985 0.884154 12.7636 0.884154V2.97058C12.4407 2.97058 12.1841 2.71035 12.1841 2.39105H14.2705Z" fill="white" mask="url(#path-8-inside-4_0_145)"/>
<path d="M17.0005 5.63619C15.7228 5.63619 14.6824 4.59676 14.6824 3.31809C14.6824 2.03943 15.7228 1 17.0005 1C18.2782 1 19.3186 2.03943 19.3186 3.31809C19.3186 4.59676 18.2782 5.63619 17.0005 5.63619ZM17.0005 1.92721C16.2336 1.92721 15.6096 2.55124 15.6096 3.31809C15.6096 4.08495 16.2336 4.70898 17.0005 4.70898C17.7673 4.70898 18.3914 4.08495 18.3914 3.31809C18.3914 2.55124 17.7673 1.92721 17.0005 1.92721Z" fill="white"/>
<circle cx="16.9667" cy="3.11522" r="2.11522" fill="white"/>
<circle cx="12.7361" cy="2.26913" r="1.26913" fill="white"/>
<circle cx="9.77443" cy="3.5414" r="0.846087" fill="white"/>
<circle cx="7.23635" cy="5.23671" r="0.846087" fill="white"/>
<circle cx="5.54347" cy="7.76796" r="0.846087" fill="white"/>
</svg>
