<svg width="24" height="24" viewBox="0 0 24 24" fill="none" xmlns="http://www.w3.org/2000/svg">
<path d="M9.02 2.82331L3.63 7.027C2.73 7.72762 2 9.21893 2 10.3499V17.7664C2 20.0885 3.89 21.9902 6.21 21.9902L9 22L9.01626 15.4892C9.01833 14.6623 9.68929 13.993 10.5163 13.993H13.5C14.3284 13.993 15 14.6645 15 15.493V22L17.79 21.9902C20.11 21.9902 22 20.0885 22 17.7765V10.49C22 9.27898 21.19 7.72762 20.2 7.03701L14.02 2.7032C12.62 1.72234 10.37 1.77238 9.02 2.82331Z" stroke="white" stroke-width="2" stroke-linecap="round" stroke-linejoin="round"/>
</svg>
