<svg width="80" height="16" viewBox="0 0 80 16" fill="none" xmlns="http://www.w3.org/2000/svg">
<path d="M4.84673 15.5996C3.59311 15.5996 2.61317 15.423 1.90691 15.0699C1.20065 14.7168 0.706263 14.1871 0.423758 13.4808C0.141253 12.7745 0 11.9005 0 10.8588V4.95267C0 3.25764 0.379616 2.01285 1.13885 1.2183C1.89808 0.406101 3.13404 0 4.84673 0H12.8187C14.037 0 14.9639 0.0706264 15.5996 0.211879C16.2529 0.335476 16.5795 0.4679 16.5795 0.609152L16.0498 2.8074C15.7497 2.75443 14.858 2.70146 13.3749 2.64849C11.9094 2.57786 9.77291 2.54255 6.96552 2.54255H5.61479C4.20226 2.54255 3.496 3.16936 3.496 4.42297V11.1766C3.496 11.7769 3.64608 12.2448 3.94624 12.5803C4.26406 12.8981 4.82024 13.057 5.61479 13.057H6.70067C8.3957 13.057 9.82588 13.0482 10.9912 13.0306C12.1566 12.9952 13.1188 12.9688 13.8781 12.9511V9.34916L12.289 9.37564L8.81946 9.64049V7.04497H17.3476V14.4872L17.6124 15.0434C17.6124 15.1847 17.2416 15.3171 16.5001 15.4407C15.7585 15.5466 14.5049 15.5996 12.7392 15.5996H4.84673Z" fill="white"/>
<path d="M38.2421 15.8644C37.5358 15.8644 36.8384 15.7585 36.1498 15.5466C35.4788 15.3171 34.7108 14.7697 33.8456 13.9046L31.9387 11.9976C31.1618 11.2031 30.3054 10.6204 29.3696 10.2496C28.4515 9.87885 27.295 9.69346 25.9001 9.69346H25.0791V15.5996H21.5831V2.14527L21.3182 0H33.051C34.1811 0 35.0639 0.150081 35.6995 0.450243C36.3528 0.750405 36.8295 1.14768 37.1297 1.64206C37.4475 2.11879 37.6506 2.63083 37.7389 3.17818C37.8271 3.72554 37.8713 4.24641 37.8713 4.74079V5.244C37.8713 5.63245 37.8183 6.06503 37.7124 6.54176C37.6064 7.01849 37.4034 7.48639 37.1032 7.94546C36.8031 8.40453 36.3705 8.79297 35.8055 9.11079C35.2581 9.42861 34.5342 9.61401 33.6337 9.66697C33.8632 9.79057 34.1546 9.98479 34.5077 10.2496C34.8608 10.4968 35.2228 10.7705 35.5936 11.0707C35.982 11.3708 36.3352 11.6445 36.653 11.8917C36.9708 12.1389 37.218 12.3155 37.3946 12.4214C38.0302 12.7922 38.5952 13.0482 39.0896 13.1895C39.584 13.3307 39.9901 13.4102 40.3079 13.4278C40.6257 13.4455 40.8111 13.4543 40.8641 13.4543L40.3344 15.5996C40.1755 15.6526 39.9106 15.7055 39.5398 15.7585C39.169 15.8291 38.7365 15.8644 38.2421 15.8644ZM29.0518 7.28334C29.7228 7.28334 30.3231 7.27451 30.8528 7.25685C31.3825 7.22154 31.8592 7.18623 32.283 7.15091C33.0599 7.06263 33.5984 6.85075 33.8986 6.51528C34.2164 6.16214 34.3753 5.7119 34.3753 5.16455V4.5554C34.3753 3.99039 34.2252 3.51366 33.925 3.12521C33.6249 2.73677 33.0863 2.54255 32.3095 2.54255H25.0791V7.15091C25.856 7.20388 26.5711 7.2392 27.2244 7.25685C27.8777 7.27451 28.4868 7.28334 29.0518 7.28334Z" fill="white"/>
<path d="M43.251 15.5996L43.5159 13.4808V0.0264861H47.0119V13.057H57.9766L59.036 15.3083C59.036 15.3789 58.7976 15.4495 58.3209 15.5201C57.8442 15.5731 57.0231 15.5996 55.8578 15.5996H43.251Z" fill="white"/>
<path d="M59.2888 15.5996L67.0489 0.0264861H72.2664L80 15.5996H75.9213L74.3587 12.236H64.8771L63.1556 15.5996H59.2888ZM65.8306 9.64049H73.3788L69.7504 2.41012H69.4855L65.8306 9.64049Z" fill="white"/>
</svg>
