<svg width="16" height="16" viewBox="0 0 16 16" fill="none" xmlns="http://www.w3.org/2000/svg">
<path d="M8.00007 8.66671C8.36826 8.66671 8.66674 8.36823 8.66674 8.00004C8.66674 7.63185 8.36826 7.33337 8.00007 7.33337C7.63188 7.33337 7.3334 7.63185 7.3334 8.00004C7.3334 8.36823 7.63188 8.66671 8.00007 8.66671Z" fill="white" stroke="white" stroke-linecap="round" stroke-linejoin="round"/>
<path d="M8.00007 3.99996C8.36826 3.99996 8.66674 3.70148 8.66674 3.33329C8.66674 2.9651 8.36826 2.66663 8.00007 2.66663C7.63188 2.66663 7.3334 2.9651 7.3334 3.33329C7.3334 3.70148 7.63188 3.99996 8.00007 3.99996Z" fill="white" stroke="white" stroke-linecap="round" stroke-linejoin="round"/>
<path d="M8.00007 13.3333C8.36826 13.3333 8.66674 13.0349 8.66674 12.6667C8.66674 12.2985 8.36826 12 8.00007 12C7.63188 12 7.3334 12.2985 7.3334 12.6667C7.3334 13.0349 7.63188 13.3333 8.00007 13.3333Z" fill="white" stroke="white" stroke-linecap="round" stroke-linejoin="round"/>
</svg>
