<svg width="22" height="24" viewBox="0 0 22 24" fill="none" xmlns="http://www.w3.org/2000/svg">
<path d="M16.0416 22.9974H5.95829C2.93329 22.9974 0.916626 21.4391 0.916626 17.803V12.6085C0.916626 8.9724 2.93329 7.41406 5.95829 7.41406H16.0416C19.0666 7.41406 21.0833 8.9724 21.0833 12.6085V17.803C21.0833 21.4391 19.0666 22.9974 16.0416 22.9974Z" stroke="white" stroke-width="1.83333" stroke-miterlimit="10" stroke-linecap="round" stroke-linejoin="round"/>
<path d="M13.0269 13.7723C14.1484 14.403 14.1485 16.0176 13.0271 16.6485L10.7093 17.9525C9.60942 18.5713 8.25029 17.7765 8.25029 16.5145L8.25028 13.907C8.25028 12.645 9.60922 11.8502 10.7091 12.4688L13.0269 13.7723Z" stroke="white" stroke-width="1.65"/>
<path d="M5.04163 4.21094H16.9583" stroke="white" stroke-width="1.83333" stroke-miterlimit="10" stroke-linecap="round" stroke-linejoin="round"/>
<path d="M7.79175 1H14.2084" stroke="white" stroke-width="1.83333" stroke-miterlimit="10" stroke-linecap="round" stroke-linejoin="round"/>
</svg>
