<svg width="14" height="14" viewBox="0 0 14 14" fill="none" xmlns="http://www.w3.org/2000/svg">
<path d="M11.8852 6.22162L4.94871 13.8134C4.83036 13.9378 4.65305 14 4.45607 14C4.37731 14 4.27875 13.9845 4.19985 13.9533C3.94363 13.86 3.80577 13.6266 3.88453 13.4088L5.55959 8.52395H2.58394C2.36717 8.52395 2.17005 8.43062 2.07163 8.27501C1.97307 8.1194 1.97307 7.94826 2.09128 7.79278L8.23949 0.2166C8.39716 0.0299516 8.69269 -0.047852 8.9489 0.0299516C9.20512 0.107758 9.36279 0.325559 9.32335 0.543327L8.35773 5.4904H11.4122C11.6289 5.4904 11.8457 5.58372 11.9443 5.73933C12.0427 5.89484 12.0032 6.08159 11.885 6.22157L11.8852 6.22162Z" fill="white"/>
</svg>
