<svg width="24" height="24" viewBox="0 0 24 24" fill="none" xmlns="http://www.w3.org/2000/svg">
<g clip-path="url(#clip0_0_461)">
<path d="M23.4982 5.66946C23.2216 4.596 22.4096 3.75241 21.3763 3.46506C19.5055 2.94373 12 2.94373 12 2.94373C12 2.94373 4.49456 2.94373 2.62364 3.46506C1.59039 3.75241 0.7784 4.596 0.501811 5.66946C1.50211e-07 7.61318 0 11.671 0 11.671C0 11.671 1.50211e-07 15.7288 0.501811 17.6726C0.7784 18.746 1.59039 19.5896 2.62364 19.8769C4.49456 20.3983 12 20.3983 12 20.3983C12 20.3983 19.5055 20.3983 21.3763 19.8769C22.4096 19.5896 23.2216 18.746 23.4982 17.6726C24 15.7288 24 11.671 24 11.671C24 11.671 23.998 7.61318 23.4982 5.66946Z" fill="#FF0000"/>
<path d="M9.59296 15.4278L15.8312 11.5999L9.59296 7.77185V15.4278Z" fill="white"/>
</g>
<defs>
<clipPath id="clip0_0_461">
<rect width="24" height="24" fill="white"/>
</clipPath>
</defs>
</svg>
